<svg xmlns="http://www.w3.org/2000/svg" viewBox="0 0 40 40">
  <rect width="40" height="40" rx="10" fill="#111111"/>
  <path d="M8,15 C8,7 14,3 22,4 C30,5 35,9 34,17 C33,25 30,31 22,33 C14,35 6,31 5,23 C4,19 5,17 8,15 Z" fill="#ffffff"/>
  <path d="M10,31 C9,34 7,36 5,37 C8,36 11,35 13,32 Z" fill="#ffffff"/>
  <circle cx="15" cy="16" r="2.6" fill="#111111"/>
  <circle cx="25" cy="15" r="1.8" fill="#111111"/>
  <path d="M14,24 Q18,28 22,24 Q26,20 28,24" stroke="#111111" stroke-width="2.2" fill="none" stroke-linecap="round"/>
</svg>
